<svg width="90" height="26" viewBox="0 0 90 26" fill="none" xmlns="http://www.w3.org/2000/svg">
<g clip-path="url(#clip0_108_76)">
<path d="M4.59458 9.32938L5.99442 23.1981C6.07198 23.7842 8.90218 25.7117 13 25.7143C17.1003 25.7117 19.9305 23.7842 20.0068 23.1981L21.408 9.32938C19.2669 10.5271 16.0667 11.0928 13 11.0928C9.93585 11.0928 6.73439 10.5271 4.59458 9.32938ZM17.0279 2.20556L15.9357 0.996434C15.5136 0.395048 15.0559 0.285706 14.1646 0.285706H11.8366C10.9466 0.285706 10.4876 0.395048 10.0668 0.996434L8.97465 2.20556C5.70708 2.77643 3.33714 4.29071 3.33714 5.40829V5.62443C3.33714 7.59133 7.66381 9.18571 13 9.18571C18.3374 9.18571 22.6641 7.59133 22.6641 5.62443V5.40829C22.6641 4.29071 20.2954 2.77643 17.0279 2.20556ZM15.6318 5.80371L14.2714 4.09999H11.7286L10.3707 5.80371H8.20925C8.20925 5.80371 10.5767 2.97986 10.8932 2.59716C11.1348 2.30473 11.3815 2.19285 11.7019 2.19285H14.2994C14.6211 2.19285 14.8677 2.30473 15.1093 2.59716C15.4246 2.97986 17.7933 5.80371 17.7933 5.80371H15.6318Z" fill="#101010"/>
<g clip-path="url(#clip1_108_76)">
<path d="M13 15.3839C13.6322 15.3839 14.2386 15.6351 14.6857 16.0822C15.1328 16.5292 15.3839 17.1356 15.3839 17.7678C15.3839 18.6499 14.9032 19.4207 14.192 19.8339V20.5491C14.192 20.6545 14.1501 20.7555 14.0756 20.83C14.0011 20.9046 13.9 20.9464 13.7946 20.9464H12.2053C12.1 20.9464 11.9989 20.9046 11.9244 20.83C11.8499 20.7555 11.808 20.6545 11.808 20.5491V19.8339C11.0968 19.4207 10.6161 18.6499 10.6161 17.7678C10.6161 17.1356 10.8672 16.5292 11.3143 16.0822C11.7614 15.6351 12.3677 15.3839 13 15.3839ZM13.7946 21.3437V21.7411C13.7946 21.8464 13.7528 21.9475 13.6783 22.022C13.6037 22.0965 13.5027 22.1384 13.3973 22.1384H12.6027C12.4973 22.1384 12.3962 22.0965 12.3217 22.022C12.2472 21.9475 12.2053 21.8464 12.2053 21.7411V21.3437H13.7946ZM16.1786 17.3705H17.3705V18.1652H16.1786V17.3705ZM8.62946 17.3705H9.82142V18.1652H8.62946V17.3705ZM13.3973 13.3973V14.5893H12.6027V13.3973H13.3973ZM10.187 14.3906L11.0333 15.2409L10.4691 15.8011L9.62276 14.9588L10.187 14.3906ZM14.9667 15.2369L15.8091 14.3906L16.3772 14.9588L15.5309 15.8011L14.9667 15.2369Z" fill="#FCFFFB"/>
</g>
</g>
<path d="M26.7189 18V6.44156H31.279C32.1519 6.44156 32.8969 6.5977 33.514 6.90999C34.1348 7.21852 34.607 7.65685 34.9306 8.22499C35.2579 8.78937 35.4216 9.45345 35.4216 10.2172C35.4216 10.9848 35.256 11.6451 34.9249 12.1982C34.5938 12.7475 34.1141 13.1689 33.4857 13.4624C32.8612 13.7559 32.1049 13.9026 31.217 13.9026H28.1637V11.9386H30.8219C31.2884 11.9386 31.676 11.8746 31.9845 11.7467C32.293 11.6188 32.5225 11.4269 32.673 11.171C32.8273 10.9152 32.9044 10.5973 32.9044 10.2172C32.9044 9.83346 32.8273 9.50989 32.673 9.24651C32.5225 8.98314 32.2912 8.78372 31.9789 8.64827C31.6703 8.50906 31.2809 8.43945 30.8106 8.43945H29.1626V18H26.7189ZM32.9609 12.74L35.8336 18H33.1358L30.3252 12.74H32.9609ZM40.9144 18.1693C40.0226 18.1693 39.2551 17.9887 38.6117 17.6275C37.9721 17.2625 37.4792 16.7471 37.133 16.0811C36.7869 15.4114 36.6138 14.6194 36.6138 13.7051C36.6138 12.8134 36.7869 12.0308 37.133 11.3573C37.4792 10.6838 37.9664 10.1589 38.5948 9.78267C39.2269 9.40642 39.9681 9.21829 40.8184 9.21829C41.3903 9.21829 41.9227 9.31047 42.4156 9.49484C42.9123 9.67544 43.3449 9.94822 43.7137 10.3132C44.0862 10.6781 44.3759 11.1372 44.5828 11.6903C44.7898 12.2396 44.8932 12.883 44.8932 13.6204V14.2808H37.5733V12.7908H42.6301C42.6301 12.4446 42.5548 12.138 42.4043 11.8709C42.2538 11.6037 42.045 11.3949 41.7779 11.2444C41.5145 11.0901 41.2078 11.013 40.8579 11.013C40.493 11.013 40.1694 11.0977 39.8872 11.267C39.6088 11.4325 39.3905 11.6564 39.2325 11.9386C39.0745 12.217 38.9936 12.5274 38.9898 12.8698V14.2864C38.9898 14.7153 39.0688 15.0859 39.2269 15.3982C39.3887 15.7105 39.6163 15.9513 39.9098 16.1206C40.2032 16.2899 40.5513 16.3746 40.9539 16.3746C41.221 16.3746 41.4656 16.337 41.6876 16.2617C41.9095 16.1865 42.0996 16.0736 42.2576 15.9231C42.4156 15.7726 42.536 15.5882 42.6188 15.37L44.8424 15.5167C44.7296 16.051 44.4982 16.5176 44.1482 16.9164C43.8021 17.3115 43.3544 17.62 42.805 17.842C42.2595 18.0602 41.6292 18.1693 40.9144 18.1693ZM45.2601 8.45638V6.44156H54.7529V8.45638H51.2142V18H48.7987V8.45638H45.2601ZM55.3709 18V9.33117H57.7018V10.8437H57.7921C57.9501 10.3057 58.2153 9.89931 58.5878 9.62464C58.9603 9.34622 59.3892 9.20701 59.8746 9.20701C59.995 9.20701 60.1248 9.21453 60.264 9.22958C60.4032 9.24463 60.5255 9.26532 60.6309 9.29166V11.425C60.518 11.3911 60.3619 11.361 60.1624 11.3347C59.963 11.3084 59.7805 11.2952 59.615 11.2952C59.2613 11.2952 58.9453 11.3723 58.6668 11.5266C58.3922 11.6771 58.174 11.8878 58.0122 12.1587C57.8541 12.4296 57.7751 12.7419 57.7751 13.0956V18H55.3709ZM64.0976 18.1637C63.5445 18.1637 63.0516 18.0677 62.6189 17.8758C62.1862 17.6802 61.8438 17.3924 61.5917 17.0123C61.3434 16.6286 61.2192 16.1507 61.2192 15.5788C61.2192 15.0972 61.3077 14.6928 61.4845 14.3654C61.6613 14.0381 61.9021 13.7747 62.2069 13.5753C62.5117 13.3759 62.8578 13.2254 63.2454 13.1238C63.6367 13.0222 64.0468 12.9507 64.4757 12.9093C64.9799 12.8566 65.3862 12.8077 65.6947 12.7626C66.0033 12.7137 66.2271 12.6422 66.3664 12.5481C66.5056 12.4541 66.5752 12.3148 66.5752 12.1305V12.0966C66.5752 11.7392 66.4623 11.4626 66.2365 11.267C66.0146 11.0713 65.6985 10.9735 65.2884 10.9735C64.8557 10.9735 64.5114 11.0694 64.2556 11.2613C63.9997 11.4495 63.8304 11.6865 63.7476 11.9725L61.524 11.7919C61.6369 11.2651 61.8589 10.8098 62.19 10.4261C62.5211 10.0385 62.9481 9.74128 63.4711 9.53434C63.9979 9.32364 64.6074 9.21829 65.2997 9.21829C65.7813 9.21829 66.2422 9.27473 66.6824 9.38761C67.1264 9.50048 67.5196 9.67544 67.862 9.91248C68.2081 10.1495 68.4809 10.4543 68.6803 10.8268C68.8797 11.1955 68.9794 11.6376 68.9794 12.1531V18H66.6993V16.7979H66.6316C66.4924 17.0688 66.3062 17.3077 66.0729 17.5146C65.8396 17.7178 65.5593 17.8777 65.232 17.9944C64.9046 18.1072 64.5265 18.1637 64.0976 18.1637ZM64.7861 16.5044C65.1398 16.5044 65.4521 16.4348 65.723 16.2956C65.9939 16.1526 66.2064 15.9607 66.3607 15.7199C66.515 15.4791 66.5921 15.2063 66.5921 14.9016V13.9816C66.5169 14.0305 66.4134 14.0757 66.2817 14.1171C66.1538 14.1547 66.0089 14.1905 65.8471 14.2243C65.6853 14.2544 65.5236 14.2826 65.3618 14.309C65.2 14.3315 65.0532 14.3522 64.9216 14.3711C64.6394 14.4124 64.3929 14.4783 64.1822 14.5686C63.9715 14.6589 63.8078 14.7812 63.6912 14.9354C63.5746 15.0859 63.5163 15.2741 63.5163 15.4998C63.5163 15.8271 63.6348 16.0774 63.8718 16.2504C64.1126 16.4197 64.4174 16.5044 64.7861 16.5044ZM78.0574 11.8031L75.8564 11.9386C75.8187 11.7505 75.7378 11.5812 75.6137 11.4307C75.4895 11.2764 75.3258 11.1541 75.1227 11.0638C74.9233 10.9697 74.6843 10.9227 74.4059 10.9227C74.0334 10.9227 73.7192 11.0017 73.4634 11.1597C73.2075 11.314 73.0796 11.521 73.0796 11.7806C73.0796 11.9875 73.1624 12.1625 73.3279 12.3054C73.4935 12.4484 73.7776 12.5632 74.1802 12.6497L75.7491 12.9658C76.5919 13.1388 77.2203 13.4173 77.6341 13.801C78.048 14.1848 78.255 14.689 78.255 15.3136C78.255 15.8817 78.0875 16.3802 77.7527 16.8092C77.4216 17.2381 76.9663 17.573 76.3869 17.8138C75.8112 18.0508 75.1471 18.1693 74.3946 18.1693C73.2471 18.1693 72.3328 17.9304 71.6517 17.4526C70.9745 16.971 70.5776 16.3163 70.4609 15.4885L72.8257 15.3644C72.8971 15.7143 73.0702 15.9814 73.3449 16.1658C73.6195 16.3464 73.9713 16.4367 74.4003 16.4367C74.8217 16.4367 75.1603 16.3558 75.4161 16.194C75.6758 16.0284 75.8074 15.8159 75.8112 15.5562C75.8074 15.338 75.7153 15.1593 75.5347 15.0201C75.3541 14.8771 75.0756 14.768 74.6994 14.6928L73.1981 14.3936C72.3516 14.2243 71.7214 13.9308 71.3075 13.5132C70.8974 13.0956 70.6923 12.5632 70.6923 11.916C70.6923 11.3592 70.8428 10.8794 71.1438 10.4769C71.4486 10.0743 71.8756 9.76386 72.4249 9.54563C72.978 9.32741 73.6252 9.21829 74.3664 9.21829C75.4613 9.21829 76.3229 9.44969 76.9512 9.91248C77.5834 10.3753 77.9521 11.0055 78.0574 11.8031ZM82.1731 12.9883V18H79.7689V6.44156H82.1054V10.8606H82.207C82.4027 10.3489 82.7187 9.94822 83.1552 9.65851C83.5916 9.36503 84.1391 9.21829 84.7975 9.21829C85.3995 9.21829 85.9244 9.34998 86.3721 9.61336C86.8236 9.87297 87.1735 10.2473 87.4219 10.7365C87.6739 11.2218 87.7981 11.8031 87.7943 12.4804V18H85.3901V12.9093C85.3939 12.375 85.2584 11.9593 84.9837 11.662C84.7128 11.3648 84.3328 11.2162 83.8437 11.2162C83.5164 11.2162 83.2266 11.2858 82.9746 11.425C82.7262 11.5642 82.5306 11.7674 82.3876 12.0345C82.2484 12.2979 82.1769 12.6158 82.1731 12.9883Z" fill="#101010"/>
<defs>
<clipPath id="clip0_108_76">
<rect width="25.4286" height="25.4286" fill="white" transform="translate(0.285706 0.285706)"/>
</clipPath>
<clipPath id="clip1_108_76">
<rect width="9.53571" height="9.53571" fill="white" transform="translate(8.23214 13)"/>
</clipPath>
</defs>
</svg>
